<mxfile host="app.diagrams.net" modified="2024-05-20T16:53:39.703Z" agent="Mozilla/5.0 (Windows NT 10.0; Win64; x64; rv:126.0) Gecko/20100101 Firefox/126.0" etag="Rr2i3fGrL7gnYPbvzBCV" version="24.4.4" type="github">
  <diagram name="Page-1" id="SISweQ8Bqux42_zxr5zN">
    <mxGraphModel dx="3240" dy="1302" grid="1" gridSize="10" guides="1" tooltips="1" connect="1" arrows="1" fold="1" page="1" pageScale="1" pageWidth="850" pageHeight="1100" math="0" shadow="0">
      <root>
        <mxCell id="0" />
        <mxCell id="1" parent="0" />
        <mxCell id="MDt-v6_xJpglvtA8Ejr1-1" value="" style="endArrow=none;html=1;rounded=0;strokeWidth=3;fontSize=15;" edge="1" parent="1">
          <mxGeometry width="50" height="50" relative="1" as="geometry">
            <mxPoint x="410" y="220" as="sourcePoint" />
            <mxPoint x="410" y="100" as="targetPoint" />
          </mxGeometry>
        </mxCell>
        <mxCell id="MDt-v6_xJpglvtA8Ejr1-2" value="" style="endArrow=none;html=1;rounded=0;strokeWidth=3;fontSize=15;" edge="1" parent="1">
          <mxGeometry width="50" height="50" relative="1" as="geometry">
            <mxPoint x="370" y="180" as="sourcePoint" />
            <mxPoint x="490" y="180" as="targetPoint" />
          </mxGeometry>
        </mxCell>
        <mxCell id="MDt-v6_xJpglvtA8Ejr1-3" value="" style="endArrow=none;html=1;rounded=0;strokeWidth=3;fontSize=15;" edge="1" parent="1">
          <mxGeometry width="50" height="50" relative="1" as="geometry">
            <mxPoint x="450" y="220" as="sourcePoint" />
            <mxPoint x="450" y="100" as="targetPoint" />
          </mxGeometry>
        </mxCell>
        <mxCell id="MDt-v6_xJpglvtA8Ejr1-4" value="" style="endArrow=none;html=1;rounded=0;strokeWidth=3;fontSize=15;" edge="1" parent="1">
          <mxGeometry width="50" height="50" relative="1" as="geometry">
            <mxPoint x="370" y="140" as="sourcePoint" />
            <mxPoint x="490" y="140" as="targetPoint" />
          </mxGeometry>
        </mxCell>
        <mxCell id="MDt-v6_xJpglvtA8Ejr1-5" value="" style="ellipse;whiteSpace=wrap;html=1;perimeterSpacing=0;strokeWidth=4;fillColor=none;strokeColor=#6c8ebf;fontSize=15;" vertex="1" parent="1">
          <mxGeometry x="460" y="150" width="20" height="20" as="geometry" />
        </mxCell>
        <mxCell id="MDt-v6_xJpglvtA8Ejr1-6" value="" style="endArrow=none;html=1;rounded=0;strokeWidth=4;strokeColor=#EA6B66;fontSize=15;" edge="1" parent="1">
          <mxGeometry width="50" height="50" relative="1" as="geometry">
            <mxPoint x="460" y="190" as="sourcePoint" />
            <mxPoint x="480" y="210" as="targetPoint" />
          </mxGeometry>
        </mxCell>
        <mxCell id="MDt-v6_xJpglvtA8Ejr1-7" value="" style="endArrow=none;html=1;rounded=0;strokeWidth=4;strokeColor=#EA6B66;fontSize=15;" edge="1" parent="1">
          <mxGeometry width="50" height="50" relative="1" as="geometry">
            <mxPoint x="460" y="210" as="sourcePoint" />
            <mxPoint x="480" y="190" as="targetPoint" />
          </mxGeometry>
        </mxCell>
        <mxCell id="MDt-v6_xJpglvtA8Ejr1-8" value="" style="endArrow=none;html=1;rounded=0;strokeWidth=4;strokeColor=#EA6B66;fontSize=15;" edge="1" parent="1">
          <mxGeometry width="50" height="50" relative="1" as="geometry">
            <mxPoint x="380" y="110" as="sourcePoint" />
            <mxPoint x="400" y="130" as="targetPoint" />
          </mxGeometry>
        </mxCell>
        <mxCell id="MDt-v6_xJpglvtA8Ejr1-9" value="" style="endArrow=none;html=1;rounded=0;strokeWidth=4;strokeColor=#EA6B66;fontSize=15;" edge="1" parent="1">
          <mxGeometry width="50" height="50" relative="1" as="geometry">
            <mxPoint x="380" y="130" as="sourcePoint" />
            <mxPoint x="400" y="110" as="targetPoint" />
          </mxGeometry>
        </mxCell>
        <mxCell id="MDt-v6_xJpglvtA8Ejr1-10" value="" style="ellipse;whiteSpace=wrap;html=1;perimeterSpacing=0;strokeWidth=4;fillColor=none;strokeColor=#6c8ebf;fontSize=15;" vertex="1" parent="1">
          <mxGeometry x="420" y="150" width="20" height="20" as="geometry" />
        </mxCell>
        <mxCell id="MDt-v6_xJpglvtA8Ejr1-11" value="" style="endArrow=none;html=1;rounded=0;strokeWidth=4;strokeColor=#EA6B66;fontSize=15;" edge="1" parent="1">
          <mxGeometry width="50" height="50" relative="1" as="geometry">
            <mxPoint x="380" y="150" as="sourcePoint" />
            <mxPoint x="400" y="170" as="targetPoint" />
          </mxGeometry>
        </mxCell>
        <mxCell id="MDt-v6_xJpglvtA8Ejr1-12" value="" style="endArrow=none;html=1;rounded=0;strokeWidth=4;strokeColor=#EA6B66;fontSize=15;" edge="1" parent="1">
          <mxGeometry width="50" height="50" relative="1" as="geometry">
            <mxPoint x="380" y="170" as="sourcePoint" />
            <mxPoint x="400" y="150" as="targetPoint" />
          </mxGeometry>
        </mxCell>
        <mxCell id="MDt-v6_xJpglvtA8Ejr1-13" value="" style="endArrow=none;html=1;rounded=0;strokeWidth=3;fontSize=15;" edge="1" parent="1">
          <mxGeometry width="50" height="50" relative="1" as="geometry">
            <mxPoint x="330" y="460" as="sourcePoint" />
            <mxPoint x="330" y="340" as="targetPoint" />
          </mxGeometry>
        </mxCell>
        <mxCell id="MDt-v6_xJpglvtA8Ejr1-14" value="" style="endArrow=none;html=1;rounded=0;strokeWidth=3;fontSize=15;" edge="1" parent="1">
          <mxGeometry width="50" height="50" relative="1" as="geometry">
            <mxPoint x="290" y="420" as="sourcePoint" />
            <mxPoint x="410" y="420" as="targetPoint" />
          </mxGeometry>
        </mxCell>
        <mxCell id="MDt-v6_xJpglvtA8Ejr1-15" value="" style="endArrow=none;html=1;rounded=0;strokeWidth=3;fontSize=15;" edge="1" parent="1">
          <mxGeometry width="50" height="50" relative="1" as="geometry">
            <mxPoint x="370" y="460" as="sourcePoint" />
            <mxPoint x="370" y="340" as="targetPoint" />
          </mxGeometry>
        </mxCell>
        <mxCell id="MDt-v6_xJpglvtA8Ejr1-16" value="" style="endArrow=none;html=1;rounded=0;strokeWidth=3;fontSize=15;" edge="1" parent="1">
          <mxGeometry width="50" height="50" relative="1" as="geometry">
            <mxPoint x="290" y="380" as="sourcePoint" />
            <mxPoint x="410" y="380" as="targetPoint" />
          </mxGeometry>
        </mxCell>
        <mxCell id="MDt-v6_xJpglvtA8Ejr1-17" value="" style="ellipse;whiteSpace=wrap;html=1;perimeterSpacing=0;strokeWidth=4;fillColor=none;strokeColor=#6c8ebf;fontSize=15;" vertex="1" parent="1">
          <mxGeometry x="380" y="390" width="20" height="20" as="geometry" />
        </mxCell>
        <mxCell id="MDt-v6_xJpglvtA8Ejr1-18" value="" style="endArrow=none;html=1;rounded=0;strokeWidth=4;strokeColor=#EA6B66;fontSize=15;" edge="1" parent="1">
          <mxGeometry width="50" height="50" relative="1" as="geometry">
            <mxPoint x="380" y="430" as="sourcePoint" />
            <mxPoint x="400" y="450" as="targetPoint" />
          </mxGeometry>
        </mxCell>
        <mxCell id="MDt-v6_xJpglvtA8Ejr1-19" value="" style="endArrow=none;html=1;rounded=0;strokeWidth=4;strokeColor=#EA6B66;fontSize=15;" edge="1" parent="1">
          <mxGeometry width="50" height="50" relative="1" as="geometry">
            <mxPoint x="380" y="450" as="sourcePoint" />
            <mxPoint x="400" y="430" as="targetPoint" />
          </mxGeometry>
        </mxCell>
        <mxCell id="MDt-v6_xJpglvtA8Ejr1-20" value="" style="endArrow=none;html=1;rounded=0;strokeWidth=4;strokeColor=#EA6B66;fontSize=15;" edge="1" parent="1">
          <mxGeometry width="50" height="50" relative="1" as="geometry">
            <mxPoint x="300" y="350" as="sourcePoint" />
            <mxPoint x="320" y="370" as="targetPoint" />
          </mxGeometry>
        </mxCell>
        <mxCell id="MDt-v6_xJpglvtA8Ejr1-21" value="" style="endArrow=none;html=1;rounded=0;strokeWidth=4;strokeColor=#EA6B66;fontSize=15;" edge="1" parent="1">
          <mxGeometry width="50" height="50" relative="1" as="geometry">
            <mxPoint x="300" y="370" as="sourcePoint" />
            <mxPoint x="320" y="350" as="targetPoint" />
          </mxGeometry>
        </mxCell>
        <mxCell id="MDt-v6_xJpglvtA8Ejr1-22" value="" style="ellipse;whiteSpace=wrap;html=1;perimeterSpacing=0;strokeWidth=4;fillColor=none;strokeColor=#6c8ebf;fontSize=15;" vertex="1" parent="1">
          <mxGeometry x="340" y="390" width="20" height="20" as="geometry" />
        </mxCell>
        <mxCell id="MDt-v6_xJpglvtA8Ejr1-23" value="" style="endArrow=none;html=1;rounded=0;strokeWidth=4;strokeColor=#EA6B66;fontSize=15;" edge="1" parent="1">
          <mxGeometry width="50" height="50" relative="1" as="geometry">
            <mxPoint x="300" y="390" as="sourcePoint" />
            <mxPoint x="320" y="410" as="targetPoint" />
          </mxGeometry>
        </mxCell>
        <mxCell id="MDt-v6_xJpglvtA8Ejr1-24" value="" style="endArrow=none;html=1;rounded=0;strokeWidth=4;strokeColor=#EA6B66;fontSize=15;" edge="1" parent="1">
          <mxGeometry width="50" height="50" relative="1" as="geometry">
            <mxPoint x="300" y="410" as="sourcePoint" />
            <mxPoint x="320" y="390" as="targetPoint" />
          </mxGeometry>
        </mxCell>
        <mxCell id="MDt-v6_xJpglvtA8Ejr1-25" value="" style="endArrow=none;html=1;rounded=0;strokeWidth=3;fontSize=15;" edge="1" parent="1">
          <mxGeometry width="50" height="50" relative="1" as="geometry">
            <mxPoint x="170" y="460" as="sourcePoint" />
            <mxPoint x="170" y="340" as="targetPoint" />
          </mxGeometry>
        </mxCell>
        <mxCell id="MDt-v6_xJpglvtA8Ejr1-26" value="" style="endArrow=none;html=1;rounded=0;strokeWidth=3;fontSize=15;" edge="1" parent="1">
          <mxGeometry width="50" height="50" relative="1" as="geometry">
            <mxPoint x="130" y="420" as="sourcePoint" />
            <mxPoint x="250" y="420" as="targetPoint" />
          </mxGeometry>
        </mxCell>
        <mxCell id="MDt-v6_xJpglvtA8Ejr1-27" value="" style="endArrow=none;html=1;rounded=0;strokeWidth=3;fontSize=15;" edge="1" parent="1">
          <mxGeometry width="50" height="50" relative="1" as="geometry">
            <mxPoint x="210" y="460" as="sourcePoint" />
            <mxPoint x="210" y="340" as="targetPoint" />
          </mxGeometry>
        </mxCell>
        <mxCell id="MDt-v6_xJpglvtA8Ejr1-28" value="" style="endArrow=none;html=1;rounded=0;strokeWidth=3;fontSize=15;" edge="1" parent="1">
          <mxGeometry width="50" height="50" relative="1" as="geometry">
            <mxPoint x="130" y="380" as="sourcePoint" />
            <mxPoint x="250" y="380" as="targetPoint" />
          </mxGeometry>
        </mxCell>
        <mxCell id="MDt-v6_xJpglvtA8Ejr1-29" value="" style="ellipse;whiteSpace=wrap;html=1;perimeterSpacing=0;strokeWidth=4;fillColor=none;strokeColor=#6c8ebf;fontSize=15;" vertex="1" parent="1">
          <mxGeometry x="220" y="390" width="20" height="20" as="geometry" />
        </mxCell>
        <mxCell id="MDt-v6_xJpglvtA8Ejr1-30" value="" style="endArrow=none;html=1;rounded=0;strokeWidth=4;strokeColor=#EA6B66;fontSize=15;" edge="1" parent="1">
          <mxGeometry width="50" height="50" relative="1" as="geometry">
            <mxPoint x="220" y="430" as="sourcePoint" />
            <mxPoint x="240" y="450" as="targetPoint" />
          </mxGeometry>
        </mxCell>
        <mxCell id="MDt-v6_xJpglvtA8Ejr1-31" value="" style="endArrow=none;html=1;rounded=0;strokeWidth=4;strokeColor=#EA6B66;fontSize=15;" edge="1" parent="1">
          <mxGeometry width="50" height="50" relative="1" as="geometry">
            <mxPoint x="220" y="450" as="sourcePoint" />
            <mxPoint x="240" y="430" as="targetPoint" />
          </mxGeometry>
        </mxCell>
        <mxCell id="MDt-v6_xJpglvtA8Ejr1-32" value="" style="endArrow=none;html=1;rounded=0;strokeWidth=4;strokeColor=#EA6B66;fontSize=15;" edge="1" parent="1">
          <mxGeometry width="50" height="50" relative="1" as="geometry">
            <mxPoint x="140" y="350" as="sourcePoint" />
            <mxPoint x="160" y="370" as="targetPoint" />
          </mxGeometry>
        </mxCell>
        <mxCell id="MDt-v6_xJpglvtA8Ejr1-33" value="" style="endArrow=none;html=1;rounded=0;strokeWidth=4;strokeColor=#EA6B66;fontSize=15;" edge="1" parent="1">
          <mxGeometry width="50" height="50" relative="1" as="geometry">
            <mxPoint x="140" y="370" as="sourcePoint" />
            <mxPoint x="160" y="350" as="targetPoint" />
          </mxGeometry>
        </mxCell>
        <mxCell id="MDt-v6_xJpglvtA8Ejr1-34" value="" style="ellipse;whiteSpace=wrap;html=1;perimeterSpacing=0;strokeWidth=4;fillColor=none;strokeColor=#6c8ebf;fontSize=15;" vertex="1" parent="1">
          <mxGeometry x="180" y="390" width="20" height="20" as="geometry" />
        </mxCell>
        <mxCell id="MDt-v6_xJpglvtA8Ejr1-35" value="" style="endArrow=none;html=1;rounded=0;strokeWidth=4;strokeColor=#EA6B66;fontSize=15;" edge="1" parent="1">
          <mxGeometry width="50" height="50" relative="1" as="geometry">
            <mxPoint x="140" y="390" as="sourcePoint" />
            <mxPoint x="160" y="410" as="targetPoint" />
          </mxGeometry>
        </mxCell>
        <mxCell id="MDt-v6_xJpglvtA8Ejr1-36" value="" style="endArrow=none;html=1;rounded=0;strokeWidth=4;strokeColor=#EA6B66;fontSize=15;" edge="1" parent="1">
          <mxGeometry width="50" height="50" relative="1" as="geometry">
            <mxPoint x="140" y="410" as="sourcePoint" />
            <mxPoint x="160" y="390" as="targetPoint" />
          </mxGeometry>
        </mxCell>
        <mxCell id="MDt-v6_xJpglvtA8Ejr1-37" value="" style="endArrow=none;html=1;rounded=0;strokeWidth=3;fontSize=15;" edge="1" parent="1">
          <mxGeometry width="50" height="50" relative="1" as="geometry">
            <mxPoint x="490" y="460" as="sourcePoint" />
            <mxPoint x="490" y="340" as="targetPoint" />
          </mxGeometry>
        </mxCell>
        <mxCell id="MDt-v6_xJpglvtA8Ejr1-38" value="" style="endArrow=none;html=1;rounded=0;strokeWidth=3;fontSize=15;" edge="1" parent="1">
          <mxGeometry width="50" height="50" relative="1" as="geometry">
            <mxPoint x="450" y="420" as="sourcePoint" />
            <mxPoint x="570" y="420" as="targetPoint" />
          </mxGeometry>
        </mxCell>
        <mxCell id="MDt-v6_xJpglvtA8Ejr1-39" value="" style="endArrow=none;html=1;rounded=0;strokeWidth=3;fontSize=15;" edge="1" parent="1">
          <mxGeometry width="50" height="50" relative="1" as="geometry">
            <mxPoint x="530" y="460" as="sourcePoint" />
            <mxPoint x="530" y="340" as="targetPoint" />
          </mxGeometry>
        </mxCell>
        <mxCell id="MDt-v6_xJpglvtA8Ejr1-40" value="" style="endArrow=none;html=1;rounded=0;strokeWidth=3;fontSize=15;" edge="1" parent="1">
          <mxGeometry width="50" height="50" relative="1" as="geometry">
            <mxPoint x="450" y="380" as="sourcePoint" />
            <mxPoint x="570" y="380" as="targetPoint" />
          </mxGeometry>
        </mxCell>
        <mxCell id="MDt-v6_xJpglvtA8Ejr1-41" value="" style="ellipse;whiteSpace=wrap;html=1;perimeterSpacing=0;strokeWidth=4;fillColor=none;strokeColor=#6c8ebf;fontSize=15;" vertex="1" parent="1">
          <mxGeometry x="540" y="390" width="20" height="20" as="geometry" />
        </mxCell>
        <mxCell id="MDt-v6_xJpglvtA8Ejr1-42" value="" style="endArrow=none;html=1;rounded=0;strokeWidth=4;strokeColor=#EA6B66;fontSize=15;" edge="1" parent="1">
          <mxGeometry width="50" height="50" relative="1" as="geometry">
            <mxPoint x="540" y="430" as="sourcePoint" />
            <mxPoint x="560" y="450" as="targetPoint" />
          </mxGeometry>
        </mxCell>
        <mxCell id="MDt-v6_xJpglvtA8Ejr1-43" value="" style="endArrow=none;html=1;rounded=0;strokeWidth=4;strokeColor=#EA6B66;fontSize=15;" edge="1" parent="1">
          <mxGeometry width="50" height="50" relative="1" as="geometry">
            <mxPoint x="540" y="450" as="sourcePoint" />
            <mxPoint x="560" y="430" as="targetPoint" />
          </mxGeometry>
        </mxCell>
        <mxCell id="MDt-v6_xJpglvtA8Ejr1-44" value="" style="endArrow=none;html=1;rounded=0;strokeWidth=4;strokeColor=#EA6B66;fontSize=15;" edge="1" parent="1">
          <mxGeometry width="50" height="50" relative="1" as="geometry">
            <mxPoint x="460" y="350" as="sourcePoint" />
            <mxPoint x="480" y="370" as="targetPoint" />
          </mxGeometry>
        </mxCell>
        <mxCell id="MDt-v6_xJpglvtA8Ejr1-45" value="" style="endArrow=none;html=1;rounded=0;strokeWidth=4;strokeColor=#EA6B66;fontSize=15;" edge="1" parent="1">
          <mxGeometry width="50" height="50" relative="1" as="geometry">
            <mxPoint x="460" y="370" as="sourcePoint" />
            <mxPoint x="480" y="350" as="targetPoint" />
          </mxGeometry>
        </mxCell>
        <mxCell id="MDt-v6_xJpglvtA8Ejr1-46" value="" style="ellipse;whiteSpace=wrap;html=1;perimeterSpacing=0;strokeWidth=4;fillColor=none;strokeColor=#6c8ebf;fontSize=15;" vertex="1" parent="1">
          <mxGeometry x="500" y="390" width="20" height="20" as="geometry" />
        </mxCell>
        <mxCell id="MDt-v6_xJpglvtA8Ejr1-47" value="" style="endArrow=none;html=1;rounded=0;strokeWidth=4;strokeColor=#EA6B66;fontSize=15;" edge="1" parent="1">
          <mxGeometry width="50" height="50" relative="1" as="geometry">
            <mxPoint x="460" y="390" as="sourcePoint" />
            <mxPoint x="480" y="410" as="targetPoint" />
          </mxGeometry>
        </mxCell>
        <mxCell id="MDt-v6_xJpglvtA8Ejr1-48" value="" style="endArrow=none;html=1;rounded=0;strokeWidth=4;strokeColor=#EA6B66;fontSize=15;" edge="1" parent="1">
          <mxGeometry width="50" height="50" relative="1" as="geometry">
            <mxPoint x="460" y="410" as="sourcePoint" />
            <mxPoint x="480" y="390" as="targetPoint" />
          </mxGeometry>
        </mxCell>
        <mxCell id="MDt-v6_xJpglvtA8Ejr1-49" value="" style="ellipse;whiteSpace=wrap;html=1;perimeterSpacing=0;strokeWidth=4;fillColor=none;strokeColor=#6c8ebf;fontSize=15;" vertex="1" parent="1">
          <mxGeometry x="140" y="430" width="20" height="20" as="geometry" />
        </mxCell>
        <mxCell id="MDt-v6_xJpglvtA8Ejr1-50" value="" style="ellipse;whiteSpace=wrap;html=1;perimeterSpacing=0;strokeWidth=4;fillColor=none;strokeColor=#6c8ebf;fontSize=15;" vertex="1" parent="1">
          <mxGeometry x="340" y="430" width="20" height="20" as="geometry" />
        </mxCell>
        <mxCell id="MDt-v6_xJpglvtA8Ejr1-51" value="" style="ellipse;whiteSpace=wrap;html=1;perimeterSpacing=0;strokeWidth=4;fillColor=none;strokeColor=#6c8ebf;fontSize=15;" vertex="1" parent="1">
          <mxGeometry x="540" y="350" width="20" height="20" as="geometry" />
        </mxCell>
        <mxCell id="MDt-v6_xJpglvtA8Ejr1-52" value="" style="endArrow=classic;html=1;rounded=0;strokeWidth=4;" edge="1" parent="1">
          <mxGeometry width="50" height="50" relative="1" as="geometry">
            <mxPoint x="430" y="240" as="sourcePoint" />
            <mxPoint x="190" y="330" as="targetPoint" />
          </mxGeometry>
        </mxCell>
        <mxCell id="MDt-v6_xJpglvtA8Ejr1-53" value="" style="endArrow=classic;html=1;rounded=0;strokeWidth=4;" edge="1" parent="1">
          <mxGeometry width="50" height="50" relative="1" as="geometry">
            <mxPoint x="430" y="240" as="sourcePoint" />
            <mxPoint x="510" y="330" as="targetPoint" />
          </mxGeometry>
        </mxCell>
        <mxCell id="MDt-v6_xJpglvtA8Ejr1-54" value="" style="endArrow=classic;html=1;rounded=0;strokeWidth=4;" edge="1" parent="1">
          <mxGeometry width="50" height="50" relative="1" as="geometry">
            <mxPoint x="430" y="240" as="sourcePoint" />
            <mxPoint x="350" y="330" as="targetPoint" />
          </mxGeometry>
        </mxCell>
        <mxCell id="MDt-v6_xJpglvtA8Ejr1-55" value="" style="endArrow=none;html=1;rounded=0;strokeWidth=3;fontSize=15;" edge="1" parent="1">
          <mxGeometry width="50" height="50" relative="1" as="geometry">
            <mxPoint x="650" y="460" as="sourcePoint" />
            <mxPoint x="650" y="340" as="targetPoint" />
          </mxGeometry>
        </mxCell>
        <mxCell id="MDt-v6_xJpglvtA8Ejr1-56" value="" style="endArrow=none;html=1;rounded=0;strokeWidth=3;fontSize=15;" edge="1" parent="1">
          <mxGeometry width="50" height="50" relative="1" as="geometry">
            <mxPoint x="610" y="420" as="sourcePoint" />
            <mxPoint x="730" y="420" as="targetPoint" />
          </mxGeometry>
        </mxCell>
        <mxCell id="MDt-v6_xJpglvtA8Ejr1-57" value="" style="endArrow=none;html=1;rounded=0;strokeWidth=3;fontSize=15;" edge="1" parent="1">
          <mxGeometry width="50" height="50" relative="1" as="geometry">
            <mxPoint x="690" y="460" as="sourcePoint" />
            <mxPoint x="690" y="340" as="targetPoint" />
          </mxGeometry>
        </mxCell>
        <mxCell id="MDt-v6_xJpglvtA8Ejr1-58" value="" style="endArrow=none;html=1;rounded=0;strokeWidth=3;fontSize=15;" edge="1" parent="1">
          <mxGeometry width="50" height="50" relative="1" as="geometry">
            <mxPoint x="610" y="380" as="sourcePoint" />
            <mxPoint x="730" y="380" as="targetPoint" />
          </mxGeometry>
        </mxCell>
        <mxCell id="MDt-v6_xJpglvtA8Ejr1-59" value="" style="ellipse;whiteSpace=wrap;html=1;perimeterSpacing=0;strokeWidth=4;fillColor=none;strokeColor=#6c8ebf;fontSize=15;" vertex="1" parent="1">
          <mxGeometry x="700" y="390" width="20" height="20" as="geometry" />
        </mxCell>
        <mxCell id="MDt-v6_xJpglvtA8Ejr1-60" value="" style="endArrow=none;html=1;rounded=0;strokeWidth=4;strokeColor=#EA6B66;fontSize=15;" edge="1" parent="1">
          <mxGeometry width="50" height="50" relative="1" as="geometry">
            <mxPoint x="700" y="430" as="sourcePoint" />
            <mxPoint x="720" y="450" as="targetPoint" />
          </mxGeometry>
        </mxCell>
        <mxCell id="MDt-v6_xJpglvtA8Ejr1-61" value="" style="endArrow=none;html=1;rounded=0;strokeWidth=4;strokeColor=#EA6B66;fontSize=15;" edge="1" parent="1">
          <mxGeometry width="50" height="50" relative="1" as="geometry">
            <mxPoint x="700" y="450" as="sourcePoint" />
            <mxPoint x="720" y="430" as="targetPoint" />
          </mxGeometry>
        </mxCell>
        <mxCell id="MDt-v6_xJpglvtA8Ejr1-62" value="" style="endArrow=none;html=1;rounded=0;strokeWidth=4;strokeColor=#EA6B66;fontSize=15;" edge="1" parent="1">
          <mxGeometry width="50" height="50" relative="1" as="geometry">
            <mxPoint x="620" y="350" as="sourcePoint" />
            <mxPoint x="640" y="370" as="targetPoint" />
          </mxGeometry>
        </mxCell>
        <mxCell id="MDt-v6_xJpglvtA8Ejr1-63" value="" style="endArrow=none;html=1;rounded=0;strokeWidth=4;strokeColor=#EA6B66;fontSize=15;" edge="1" parent="1">
          <mxGeometry width="50" height="50" relative="1" as="geometry">
            <mxPoint x="620" y="370" as="sourcePoint" />
            <mxPoint x="640" y="350" as="targetPoint" />
          </mxGeometry>
        </mxCell>
        <mxCell id="MDt-v6_xJpglvtA8Ejr1-64" value="" style="ellipse;whiteSpace=wrap;html=1;perimeterSpacing=0;strokeWidth=4;fillColor=none;strokeColor=#6c8ebf;fontSize=15;" vertex="1" parent="1">
          <mxGeometry x="660" y="390" width="20" height="20" as="geometry" />
        </mxCell>
        <mxCell id="MDt-v6_xJpglvtA8Ejr1-65" value="" style="endArrow=none;html=1;rounded=0;strokeWidth=4;strokeColor=#EA6B66;fontSize=15;" edge="1" parent="1">
          <mxGeometry width="50" height="50" relative="1" as="geometry">
            <mxPoint x="620" y="390" as="sourcePoint" />
            <mxPoint x="640" y="410" as="targetPoint" />
          </mxGeometry>
        </mxCell>
        <mxCell id="MDt-v6_xJpglvtA8Ejr1-66" value="" style="endArrow=none;html=1;rounded=0;strokeWidth=4;strokeColor=#EA6B66;fontSize=15;" edge="1" parent="1">
          <mxGeometry width="50" height="50" relative="1" as="geometry">
            <mxPoint x="620" y="410" as="sourcePoint" />
            <mxPoint x="640" y="390" as="targetPoint" />
          </mxGeometry>
        </mxCell>
        <mxCell id="MDt-v6_xJpglvtA8Ejr1-67" value="" style="ellipse;whiteSpace=wrap;html=1;perimeterSpacing=0;strokeWidth=4;fillColor=none;strokeColor=#6c8ebf;fontSize=15;" vertex="1" parent="1">
          <mxGeometry x="660" y="350" width="20" height="20" as="geometry" />
        </mxCell>
        <mxCell id="MDt-v6_xJpglvtA8Ejr1-68" value="" style="endArrow=classic;html=1;rounded=0;strokeWidth=4;" edge="1" parent="1">
          <mxGeometry width="50" height="50" relative="1" as="geometry">
            <mxPoint x="430" y="240" as="sourcePoint" />
            <mxPoint x="670" y="330" as="targetPoint" />
          </mxGeometry>
        </mxCell>
        <mxCell id="MDt-v6_xJpglvtA8Ejr1-69" value="" style="endArrow=classic;html=1;rounded=0;strokeWidth=4;strokeColor=#000000;" edge="1" parent="1">
          <mxGeometry width="50" height="50" relative="1" as="geometry">
            <mxPoint x="190" y="470" as="sourcePoint" />
            <mxPoint x="190" y="560" as="targetPoint" />
          </mxGeometry>
        </mxCell>
        <mxCell id="MDt-v6_xJpglvtA8Ejr1-70" value="" style="endArrow=none;html=1;rounded=0;strokeWidth=3;fontSize=15;" edge="1" parent="1">
          <mxGeometry width="50" height="50" relative="1" as="geometry">
            <mxPoint x="170" y="690" as="sourcePoint" />
            <mxPoint x="170" y="570" as="targetPoint" />
          </mxGeometry>
        </mxCell>
        <mxCell id="MDt-v6_xJpglvtA8Ejr1-71" value="" style="endArrow=none;html=1;rounded=0;strokeWidth=3;fontSize=15;" edge="1" parent="1">
          <mxGeometry width="50" height="50" relative="1" as="geometry">
            <mxPoint x="130" y="650" as="sourcePoint" />
            <mxPoint x="250" y="650" as="targetPoint" />
          </mxGeometry>
        </mxCell>
        <mxCell id="MDt-v6_xJpglvtA8Ejr1-72" value="" style="endArrow=none;html=1;rounded=0;strokeWidth=3;fontSize=15;" edge="1" parent="1">
          <mxGeometry width="50" height="50" relative="1" as="geometry">
            <mxPoint x="210" y="690" as="sourcePoint" />
            <mxPoint x="210" y="570" as="targetPoint" />
          </mxGeometry>
        </mxCell>
        <mxCell id="MDt-v6_xJpglvtA8Ejr1-73" value="" style="endArrow=none;html=1;rounded=0;strokeWidth=3;fontSize=15;" edge="1" parent="1">
          <mxGeometry width="50" height="50" relative="1" as="geometry">
            <mxPoint x="130" y="610" as="sourcePoint" />
            <mxPoint x="250" y="610" as="targetPoint" />
          </mxGeometry>
        </mxCell>
        <mxCell id="MDt-v6_xJpglvtA8Ejr1-74" value="" style="ellipse;whiteSpace=wrap;html=1;perimeterSpacing=0;strokeWidth=4;fillColor=none;strokeColor=#6c8ebf;fontSize=15;" vertex="1" parent="1">
          <mxGeometry x="220" y="620" width="20" height="20" as="geometry" />
        </mxCell>
        <mxCell id="MDt-v6_xJpglvtA8Ejr1-75" value="" style="endArrow=none;html=1;rounded=0;strokeWidth=4;strokeColor=#EA6B66;fontSize=15;" edge="1" parent="1">
          <mxGeometry width="50" height="50" relative="1" as="geometry">
            <mxPoint x="220" y="660" as="sourcePoint" />
            <mxPoint x="240" y="680" as="targetPoint" />
          </mxGeometry>
        </mxCell>
        <mxCell id="MDt-v6_xJpglvtA8Ejr1-76" value="" style="endArrow=none;html=1;rounded=0;strokeWidth=4;strokeColor=#EA6B66;fontSize=15;" edge="1" parent="1">
          <mxGeometry width="50" height="50" relative="1" as="geometry">
            <mxPoint x="220" y="680" as="sourcePoint" />
            <mxPoint x="240" y="660" as="targetPoint" />
          </mxGeometry>
        </mxCell>
        <mxCell id="MDt-v6_xJpglvtA8Ejr1-77" value="" style="endArrow=none;html=1;rounded=0;strokeWidth=4;strokeColor=#EA6B66;fontSize=15;" edge="1" parent="1">
          <mxGeometry width="50" height="50" relative="1" as="geometry">
            <mxPoint x="140" y="580" as="sourcePoint" />
            <mxPoint x="160" y="600" as="targetPoint" />
          </mxGeometry>
        </mxCell>
        <mxCell id="MDt-v6_xJpglvtA8Ejr1-78" value="" style="endArrow=none;html=1;rounded=0;strokeWidth=4;strokeColor=#EA6B66;fontSize=15;" edge="1" parent="1">
          <mxGeometry width="50" height="50" relative="1" as="geometry">
            <mxPoint x="140" y="600" as="sourcePoint" />
            <mxPoint x="160" y="580" as="targetPoint" />
          </mxGeometry>
        </mxCell>
        <mxCell id="MDt-v6_xJpglvtA8Ejr1-79" value="" style="ellipse;whiteSpace=wrap;html=1;perimeterSpacing=0;strokeWidth=4;fillColor=none;strokeColor=#6c8ebf;fontSize=15;" vertex="1" parent="1">
          <mxGeometry x="180" y="620" width="20" height="20" as="geometry" />
        </mxCell>
        <mxCell id="MDt-v6_xJpglvtA8Ejr1-80" value="" style="endArrow=none;html=1;rounded=0;strokeWidth=4;strokeColor=#EA6B66;fontSize=15;" edge="1" parent="1">
          <mxGeometry width="50" height="50" relative="1" as="geometry">
            <mxPoint x="140" y="620" as="sourcePoint" />
            <mxPoint x="160" y="640" as="targetPoint" />
          </mxGeometry>
        </mxCell>
        <mxCell id="MDt-v6_xJpglvtA8Ejr1-81" value="" style="endArrow=none;html=1;rounded=0;strokeWidth=4;strokeColor=#EA6B66;fontSize=15;" edge="1" parent="1">
          <mxGeometry width="50" height="50" relative="1" as="geometry">
            <mxPoint x="140" y="640" as="sourcePoint" />
            <mxPoint x="160" y="620" as="targetPoint" />
          </mxGeometry>
        </mxCell>
        <mxCell id="MDt-v6_xJpglvtA8Ejr1-82" value="" style="ellipse;whiteSpace=wrap;html=1;perimeterSpacing=0;strokeWidth=4;fillColor=none;strokeColor=#6c8ebf;fontSize=15;" vertex="1" parent="1">
          <mxGeometry x="140" y="660" width="20" height="20" as="geometry" />
        </mxCell>
        <mxCell id="MDt-v6_xJpglvtA8Ejr1-83" value="" style="endArrow=none;html=1;rounded=0;strokeWidth=4;strokeColor=#EA6B66;fontSize=15;" edge="1" parent="1">
          <mxGeometry width="50" height="50" relative="1" as="geometry">
            <mxPoint x="180" y="580" as="sourcePoint" />
            <mxPoint x="200" y="600" as="targetPoint" />
          </mxGeometry>
        </mxCell>
        <mxCell id="MDt-v6_xJpglvtA8Ejr1-84" value="" style="endArrow=none;html=1;rounded=0;strokeWidth=4;strokeColor=#EA6B66;fontSize=15;" edge="1" parent="1">
          <mxGeometry width="50" height="50" relative="1" as="geometry">
            <mxPoint x="180" y="600" as="sourcePoint" />
            <mxPoint x="200" y="580" as="targetPoint" />
          </mxGeometry>
        </mxCell>
        <mxCell id="MDt-v6_xJpglvtA8Ejr1-85" value="" style="endArrow=none;html=1;rounded=0;strokeWidth=3;fontSize=15;" edge="1" parent="1">
          <mxGeometry width="50" height="50" relative="1" as="geometry">
            <mxPoint x="330" y="690" as="sourcePoint" />
            <mxPoint x="330" y="570" as="targetPoint" />
          </mxGeometry>
        </mxCell>
        <mxCell id="MDt-v6_xJpglvtA8Ejr1-86" value="" style="endArrow=none;html=1;rounded=0;strokeWidth=3;fontSize=15;" edge="1" parent="1">
          <mxGeometry width="50" height="50" relative="1" as="geometry">
            <mxPoint x="290" y="650" as="sourcePoint" />
            <mxPoint x="410" y="650" as="targetPoint" />
          </mxGeometry>
        </mxCell>
        <mxCell id="MDt-v6_xJpglvtA8Ejr1-87" value="" style="endArrow=none;html=1;rounded=0;strokeWidth=3;fontSize=15;" edge="1" parent="1">
          <mxGeometry width="50" height="50" relative="1" as="geometry">
            <mxPoint x="370" y="690" as="sourcePoint" />
            <mxPoint x="370" y="570" as="targetPoint" />
          </mxGeometry>
        </mxCell>
        <mxCell id="MDt-v6_xJpglvtA8Ejr1-88" value="" style="endArrow=none;html=1;rounded=0;strokeWidth=3;fontSize=15;" edge="1" parent="1">
          <mxGeometry width="50" height="50" relative="1" as="geometry">
            <mxPoint x="290" y="610" as="sourcePoint" />
            <mxPoint x="410" y="610" as="targetPoint" />
          </mxGeometry>
        </mxCell>
        <mxCell id="MDt-v6_xJpglvtA8Ejr1-89" value="" style="ellipse;whiteSpace=wrap;html=1;perimeterSpacing=0;strokeWidth=4;fillColor=none;strokeColor=#6c8ebf;fontSize=15;" vertex="1" parent="1">
          <mxGeometry x="380" y="620" width="20" height="20" as="geometry" />
        </mxCell>
        <mxCell id="MDt-v6_xJpglvtA8Ejr1-90" value="" style="endArrow=none;html=1;rounded=0;strokeWidth=4;strokeColor=#EA6B66;fontSize=15;" edge="1" parent="1">
          <mxGeometry width="50" height="50" relative="1" as="geometry">
            <mxPoint x="380" y="660" as="sourcePoint" />
            <mxPoint x="400" y="680" as="targetPoint" />
          </mxGeometry>
        </mxCell>
        <mxCell id="MDt-v6_xJpglvtA8Ejr1-91" value="" style="endArrow=none;html=1;rounded=0;strokeWidth=4;strokeColor=#EA6B66;fontSize=15;" edge="1" parent="1">
          <mxGeometry width="50" height="50" relative="1" as="geometry">
            <mxPoint x="380" y="680" as="sourcePoint" />
            <mxPoint x="400" y="660" as="targetPoint" />
          </mxGeometry>
        </mxCell>
        <mxCell id="MDt-v6_xJpglvtA8Ejr1-92" value="" style="endArrow=none;html=1;rounded=0;strokeWidth=4;strokeColor=#EA6B66;fontSize=15;" edge="1" parent="1">
          <mxGeometry width="50" height="50" relative="1" as="geometry">
            <mxPoint x="300" y="580" as="sourcePoint" />
            <mxPoint x="320" y="600" as="targetPoint" />
          </mxGeometry>
        </mxCell>
        <mxCell id="MDt-v6_xJpglvtA8Ejr1-93" value="" style="endArrow=none;html=1;rounded=0;strokeWidth=4;strokeColor=#EA6B66;fontSize=15;" edge="1" parent="1">
          <mxGeometry width="50" height="50" relative="1" as="geometry">
            <mxPoint x="300" y="600" as="sourcePoint" />
            <mxPoint x="320" y="580" as="targetPoint" />
          </mxGeometry>
        </mxCell>
        <mxCell id="MDt-v6_xJpglvtA8Ejr1-94" value="" style="ellipse;whiteSpace=wrap;html=1;perimeterSpacing=0;strokeWidth=4;fillColor=none;strokeColor=#6c8ebf;fontSize=15;" vertex="1" parent="1">
          <mxGeometry x="340" y="620" width="20" height="20" as="geometry" />
        </mxCell>
        <mxCell id="MDt-v6_xJpglvtA8Ejr1-95" value="" style="endArrow=none;html=1;rounded=0;strokeWidth=4;strokeColor=#EA6B66;fontSize=15;" edge="1" parent="1">
          <mxGeometry width="50" height="50" relative="1" as="geometry">
            <mxPoint x="300" y="620" as="sourcePoint" />
            <mxPoint x="320" y="640" as="targetPoint" />
          </mxGeometry>
        </mxCell>
        <mxCell id="MDt-v6_xJpglvtA8Ejr1-96" value="" style="endArrow=none;html=1;rounded=0;strokeWidth=4;strokeColor=#EA6B66;fontSize=15;" edge="1" parent="1">
          <mxGeometry width="50" height="50" relative="1" as="geometry">
            <mxPoint x="300" y="640" as="sourcePoint" />
            <mxPoint x="320" y="620" as="targetPoint" />
          </mxGeometry>
        </mxCell>
        <mxCell id="MDt-v6_xJpglvtA8Ejr1-97" value="" style="ellipse;whiteSpace=wrap;html=1;perimeterSpacing=0;strokeWidth=4;fillColor=none;strokeColor=#6c8ebf;fontSize=15;" vertex="1" parent="1">
          <mxGeometry x="300" y="660" width="20" height="20" as="geometry" />
        </mxCell>
        <mxCell id="MDt-v6_xJpglvtA8Ejr1-98" value="" style="endArrow=none;html=1;rounded=0;strokeWidth=4;strokeColor=#EA6B66;fontSize=15;" edge="1" parent="1">
          <mxGeometry width="50" height="50" relative="1" as="geometry">
            <mxPoint x="380" y="580" as="sourcePoint" />
            <mxPoint x="400" y="600" as="targetPoint" />
          </mxGeometry>
        </mxCell>
        <mxCell id="MDt-v6_xJpglvtA8Ejr1-99" value="" style="endArrow=none;html=1;rounded=0;strokeWidth=4;strokeColor=#EA6B66;fontSize=15;" edge="1" parent="1">
          <mxGeometry width="50" height="50" relative="1" as="geometry">
            <mxPoint x="380" y="600" as="sourcePoint" />
            <mxPoint x="400" y="580" as="targetPoint" />
          </mxGeometry>
        </mxCell>
        <mxCell id="MDt-v6_xJpglvtA8Ejr1-100" value="" style="endArrow=none;html=1;rounded=0;strokeWidth=3;fontSize=15;" edge="1" parent="1">
          <mxGeometry width="50" height="50" relative="1" as="geometry">
            <mxPoint x="10" y="690" as="sourcePoint" />
            <mxPoint x="10" y="570" as="targetPoint" />
          </mxGeometry>
        </mxCell>
        <mxCell id="MDt-v6_xJpglvtA8Ejr1-101" value="" style="endArrow=none;html=1;rounded=0;strokeWidth=3;fontSize=15;" edge="1" parent="1">
          <mxGeometry width="50" height="50" relative="1" as="geometry">
            <mxPoint x="-30" y="650" as="sourcePoint" />
            <mxPoint x="90" y="650" as="targetPoint" />
          </mxGeometry>
        </mxCell>
        <mxCell id="MDt-v6_xJpglvtA8Ejr1-102" value="" style="endArrow=none;html=1;rounded=0;strokeWidth=3;fontSize=15;" edge="1" parent="1">
          <mxGeometry width="50" height="50" relative="1" as="geometry">
            <mxPoint x="50" y="690" as="sourcePoint" />
            <mxPoint x="50" y="570" as="targetPoint" />
          </mxGeometry>
        </mxCell>
        <mxCell id="MDt-v6_xJpglvtA8Ejr1-103" value="" style="endArrow=none;html=1;rounded=0;strokeWidth=3;fontSize=15;" edge="1" parent="1">
          <mxGeometry width="50" height="50" relative="1" as="geometry">
            <mxPoint x="-30" y="610" as="sourcePoint" />
            <mxPoint x="90" y="610" as="targetPoint" />
          </mxGeometry>
        </mxCell>
        <mxCell id="MDt-v6_xJpglvtA8Ejr1-104" value="" style="ellipse;whiteSpace=wrap;html=1;perimeterSpacing=0;strokeWidth=4;fillColor=none;strokeColor=#6c8ebf;fontSize=15;" vertex="1" parent="1">
          <mxGeometry x="60" y="620" width="20" height="20" as="geometry" />
        </mxCell>
        <mxCell id="MDt-v6_xJpglvtA8Ejr1-105" value="" style="endArrow=none;html=1;rounded=0;strokeWidth=4;strokeColor=#EA6B66;fontSize=15;" edge="1" parent="1">
          <mxGeometry width="50" height="50" relative="1" as="geometry">
            <mxPoint x="60" y="660" as="sourcePoint" />
            <mxPoint x="80" y="680" as="targetPoint" />
          </mxGeometry>
        </mxCell>
        <mxCell id="MDt-v6_xJpglvtA8Ejr1-106" value="" style="endArrow=none;html=1;rounded=0;strokeWidth=4;strokeColor=#EA6B66;fontSize=15;" edge="1" parent="1">
          <mxGeometry width="50" height="50" relative="1" as="geometry">
            <mxPoint x="60" y="680" as="sourcePoint" />
            <mxPoint x="80" y="660" as="targetPoint" />
          </mxGeometry>
        </mxCell>
        <mxCell id="MDt-v6_xJpglvtA8Ejr1-107" value="" style="endArrow=none;html=1;rounded=0;strokeWidth=4;strokeColor=#EA6B66;fontSize=15;" edge="1" parent="1">
          <mxGeometry width="50" height="50" relative="1" as="geometry">
            <mxPoint x="-20" y="580" as="sourcePoint" />
            <mxPoint y="600" as="targetPoint" />
          </mxGeometry>
        </mxCell>
        <mxCell id="MDt-v6_xJpglvtA8Ejr1-108" value="" style="endArrow=none;html=1;rounded=0;strokeWidth=4;strokeColor=#EA6B66;fontSize=15;" edge="1" parent="1">
          <mxGeometry width="50" height="50" relative="1" as="geometry">
            <mxPoint x="-20" y="600" as="sourcePoint" />
            <mxPoint y="580" as="targetPoint" />
          </mxGeometry>
        </mxCell>
        <mxCell id="MDt-v6_xJpglvtA8Ejr1-109" value="" style="ellipse;whiteSpace=wrap;html=1;perimeterSpacing=0;strokeWidth=4;fillColor=none;strokeColor=#6c8ebf;fontSize=15;" vertex="1" parent="1">
          <mxGeometry x="20" y="620" width="20" height="20" as="geometry" />
        </mxCell>
        <mxCell id="MDt-v6_xJpglvtA8Ejr1-110" value="" style="endArrow=none;html=1;rounded=0;strokeWidth=4;strokeColor=#EA6B66;fontSize=15;" edge="1" parent="1">
          <mxGeometry width="50" height="50" relative="1" as="geometry">
            <mxPoint x="-20" y="620" as="sourcePoint" />
            <mxPoint y="640" as="targetPoint" />
          </mxGeometry>
        </mxCell>
        <mxCell id="MDt-v6_xJpglvtA8Ejr1-111" value="" style="endArrow=none;html=1;rounded=0;strokeWidth=4;strokeColor=#EA6B66;fontSize=15;" edge="1" parent="1">
          <mxGeometry width="50" height="50" relative="1" as="geometry">
            <mxPoint x="-20" y="640" as="sourcePoint" />
            <mxPoint y="620" as="targetPoint" />
          </mxGeometry>
        </mxCell>
        <mxCell id="MDt-v6_xJpglvtA8Ejr1-112" value="" style="ellipse;whiteSpace=wrap;html=1;perimeterSpacing=0;strokeWidth=4;fillColor=none;strokeColor=#6c8ebf;fontSize=15;" vertex="1" parent="1">
          <mxGeometry x="-20" y="660" width="20" height="20" as="geometry" />
        </mxCell>
        <mxCell id="MDt-v6_xJpglvtA8Ejr1-113" value="" style="endArrow=none;html=1;rounded=0;strokeWidth=4;strokeColor=#EA6B66;fontSize=15;" edge="1" parent="1">
          <mxGeometry width="50" height="50" relative="1" as="geometry">
            <mxPoint x="20" y="660" as="sourcePoint" />
            <mxPoint x="40" y="680" as="targetPoint" />
          </mxGeometry>
        </mxCell>
        <mxCell id="MDt-v6_xJpglvtA8Ejr1-114" value="" style="endArrow=none;html=1;rounded=0;strokeWidth=4;strokeColor=#EA6B66;fontSize=15;" edge="1" parent="1">
          <mxGeometry width="50" height="50" relative="1" as="geometry">
            <mxPoint x="20" y="680" as="sourcePoint" />
            <mxPoint x="40" y="660" as="targetPoint" />
          </mxGeometry>
        </mxCell>
        <mxCell id="MDt-v6_xJpglvtA8Ejr1-115" value="" style="endArrow=classic;html=1;rounded=0;strokeWidth=4;strokeColor=#000000;" edge="1" parent="1">
          <mxGeometry width="50" height="50" relative="1" as="geometry">
            <mxPoint x="190" y="470" as="sourcePoint" />
            <mxPoint x="350" y="550" as="targetPoint" />
          </mxGeometry>
        </mxCell>
        <mxCell id="MDt-v6_xJpglvtA8Ejr1-116" value="" style="endArrow=classic;html=1;rounded=0;strokeWidth=4;strokeColor=#000000;" edge="1" parent="1">
          <mxGeometry width="50" height="50" relative="1" as="geometry">
            <mxPoint x="190" y="470" as="sourcePoint" />
            <mxPoint x="30" y="550" as="targetPoint" />
          </mxGeometry>
        </mxCell>
        <mxCell id="MDt-v6_xJpglvtA8Ejr1-117" value="" style="endArrow=oval;html=1;rounded=1;strokeWidth=4;strokeColor=#97D077;curved=0;endFill=0;endSize=18;" edge="1" parent="1">
          <mxGeometry width="50" height="50" relative="1" as="geometry">
            <mxPoint x="20" y="700" as="sourcePoint" />
            <mxPoint x="20" y="820" as="targetPoint" />
            <Array as="points">
              <mxPoint x="40" y="720" />
              <mxPoint x="10" y="740" />
              <mxPoint x="40" y="760" />
              <mxPoint x="10" y="780" />
              <mxPoint x="40" y="800" />
            </Array>
          </mxGeometry>
        </mxCell>
        <mxCell id="MDt-v6_xJpglvtA8Ejr1-118" value="" style="endArrow=none;html=1;rounded=0;strokeWidth=3;fontSize=15;" edge="1" parent="1">
          <mxGeometry width="50" height="50" relative="1" as="geometry">
            <mxPoint y="970" as="sourcePoint" />
            <mxPoint y="850" as="targetPoint" />
          </mxGeometry>
        </mxCell>
        <mxCell id="MDt-v6_xJpglvtA8Ejr1-119" value="" style="endArrow=none;html=1;rounded=0;strokeWidth=3;fontSize=15;" edge="1" parent="1">
          <mxGeometry width="50" height="50" relative="1" as="geometry">
            <mxPoint x="-40" y="930" as="sourcePoint" />
            <mxPoint x="80" y="930" as="targetPoint" />
          </mxGeometry>
        </mxCell>
        <mxCell id="MDt-v6_xJpglvtA8Ejr1-120" value="" style="endArrow=none;html=1;rounded=0;strokeWidth=3;fontSize=15;" edge="1" parent="1">
          <mxGeometry width="50" height="50" relative="1" as="geometry">
            <mxPoint x="40" y="970" as="sourcePoint" />
            <mxPoint x="40" y="850" as="targetPoint" />
          </mxGeometry>
        </mxCell>
        <mxCell id="MDt-v6_xJpglvtA8Ejr1-121" value="" style="endArrow=none;html=1;rounded=0;strokeWidth=3;fontSize=15;" edge="1" parent="1">
          <mxGeometry width="50" height="50" relative="1" as="geometry">
            <mxPoint x="-40" y="890" as="sourcePoint" />
            <mxPoint x="80" y="890" as="targetPoint" />
          </mxGeometry>
        </mxCell>
        <mxCell id="MDt-v6_xJpglvtA8Ejr1-122" value="" style="ellipse;whiteSpace=wrap;html=1;perimeterSpacing=0;strokeWidth=4;fillColor=none;strokeColor=#6c8ebf;fontSize=15;" vertex="1" parent="1">
          <mxGeometry x="50" y="900" width="20" height="20" as="geometry" />
        </mxCell>
        <mxCell id="MDt-v6_xJpglvtA8Ejr1-123" value="" style="endArrow=none;html=1;rounded=0;strokeWidth=4;strokeColor=#EA6B66;fontSize=15;" edge="1" parent="1">
          <mxGeometry width="50" height="50" relative="1" as="geometry">
            <mxPoint x="50" y="940" as="sourcePoint" />
            <mxPoint x="70" y="960" as="targetPoint" />
          </mxGeometry>
        </mxCell>
        <mxCell id="MDt-v6_xJpglvtA8Ejr1-124" value="" style="endArrow=none;html=1;rounded=0;strokeWidth=4;strokeColor=#EA6B66;fontSize=15;" edge="1" parent="1">
          <mxGeometry width="50" height="50" relative="1" as="geometry">
            <mxPoint x="50" y="960" as="sourcePoint" />
            <mxPoint x="70" y="940" as="targetPoint" />
          </mxGeometry>
        </mxCell>
        <mxCell id="MDt-v6_xJpglvtA8Ejr1-125" value="" style="endArrow=none;html=1;rounded=0;strokeWidth=4;strokeColor=#EA6B66;fontSize=15;" edge="1" parent="1">
          <mxGeometry width="50" height="50" relative="1" as="geometry">
            <mxPoint x="-30" y="860" as="sourcePoint" />
            <mxPoint x="-10" y="880" as="targetPoint" />
          </mxGeometry>
        </mxCell>
        <mxCell id="MDt-v6_xJpglvtA8Ejr1-126" value="" style="endArrow=none;html=1;rounded=0;strokeWidth=4;strokeColor=#EA6B66;fontSize=15;" edge="1" parent="1">
          <mxGeometry width="50" height="50" relative="1" as="geometry">
            <mxPoint x="-30" y="880" as="sourcePoint" />
            <mxPoint x="-10" y="860" as="targetPoint" />
          </mxGeometry>
        </mxCell>
        <mxCell id="MDt-v6_xJpglvtA8Ejr1-127" value="" style="ellipse;whiteSpace=wrap;html=1;perimeterSpacing=0;strokeWidth=4;fillColor=none;strokeColor=#6c8ebf;fontSize=15;" vertex="1" parent="1">
          <mxGeometry x="10" y="900" width="20" height="20" as="geometry" />
        </mxCell>
        <mxCell id="MDt-v6_xJpglvtA8Ejr1-128" value="" style="endArrow=none;html=1;rounded=0;strokeWidth=4;strokeColor=#EA6B66;fontSize=15;" edge="1" parent="1">
          <mxGeometry width="50" height="50" relative="1" as="geometry">
            <mxPoint x="-30" y="900" as="sourcePoint" />
            <mxPoint x="-10" y="920" as="targetPoint" />
          </mxGeometry>
        </mxCell>
        <mxCell id="MDt-v6_xJpglvtA8Ejr1-129" value="" style="endArrow=none;html=1;rounded=0;strokeWidth=4;strokeColor=#EA6B66;fontSize=15;" edge="1" parent="1">
          <mxGeometry width="50" height="50" relative="1" as="geometry">
            <mxPoint x="-30" y="920" as="sourcePoint" />
            <mxPoint x="-10" y="900" as="targetPoint" />
          </mxGeometry>
        </mxCell>
        <mxCell id="MDt-v6_xJpglvtA8Ejr1-130" value="" style="ellipse;whiteSpace=wrap;html=1;perimeterSpacing=0;strokeWidth=4;fillColor=none;strokeColor=#6c8ebf;fontSize=15;" vertex="1" parent="1">
          <mxGeometry x="-30" y="940" width="20" height="20" as="geometry" />
        </mxCell>
        <mxCell id="MDt-v6_xJpglvtA8Ejr1-131" value="" style="endArrow=none;html=1;rounded=0;strokeWidth=4;strokeColor=#EA6B66;fontSize=15;" edge="1" parent="1">
          <mxGeometry width="50" height="50" relative="1" as="geometry">
            <mxPoint x="10" y="940" as="sourcePoint" />
            <mxPoint x="30" y="960" as="targetPoint" />
          </mxGeometry>
        </mxCell>
        <mxCell id="MDt-v6_xJpglvtA8Ejr1-132" value="" style="endArrow=none;html=1;rounded=0;strokeWidth=4;strokeColor=#EA6B66;fontSize=15;" edge="1" parent="1">
          <mxGeometry width="50" height="50" relative="1" as="geometry">
            <mxPoint x="10" y="960" as="sourcePoint" />
            <mxPoint x="30" y="940" as="targetPoint" />
          </mxGeometry>
        </mxCell>
        <mxCell id="MDt-v6_xJpglvtA8Ejr1-133" value="" style="ellipse;whiteSpace=wrap;html=1;perimeterSpacing=0;strokeWidth=4;fillColor=none;strokeColor=#6c8ebf;fontSize=15;" vertex="1" parent="1">
          <mxGeometry x="50" y="860" width="20" height="20" as="geometry" />
        </mxCell>
        <mxCell id="MDt-v6_xJpglvtA8Ejr1-135" value="" style="endArrow=none;html=1;rounded=0;strokeWidth=4;strokeColor=#97D077;" edge="1" parent="1">
          <mxGeometry width="50" height="50" relative="1" as="geometry">
            <mxPoint x="-40" y="970" as="sourcePoint" />
            <mxPoint x="80" y="850" as="targetPoint" />
          </mxGeometry>
        </mxCell>
      </root>
    </mxGraphModel>
  </diagram>
</mxfile>
